<svg xmlns="http://www.w3.org/2000/svg" viewBox="0 0 57.16 51.33">
<path d="M8,50.81a3,3,0,0,1-2.35-1.36L0.78,41.15a2.46,2.46,0,0,1,0-2.25A400.36,400.36,0,0,1,22.29,1.64,2.22,2.22,0,0,1,24.42.48h8.33a2.2,2.2,0,0,1,2.1,1.11A370.29,370.29,0,0,1,56.37,38.85a2.46,2.46,0,0,1,0,2.33l-4.84,8.3a2.66,2.66,0,0,1-2.25,1.23A3.25,3.25,0,0,1,48,50.43a2.29,2.29,0,0,1-.91-0.92C41.35,38.28,35.26,27.6,29,17.76l-0.43-.67-0.42.67c-7,11.24-12.9,21.62-18.07,31.74a2.29,2.29,0,0,1-.94.94A2.08,2.08,0,0,1,8,50.81Z" transform="translate(0 0.02)"/><path class="cls-2" d="M32.75,1a1.67,1.67,0,0,1,1.65.84l0,0.05,0,0A368.74,368.74,0,0,1,55.92,39.07a2,2,0,0,1,0,1.86L51.11,49.2a2.18,2.18,0,0,1-1.83,1A2.75,2.75,0,0,1,48.21,50a1.81,1.81,0,0,1-.69-0.71C41.78,38,35.69,27.34,29.42,17.49l-0.85-1.34L27.73,17.5c-7,11.25-12.92,21.64-18.1,31.79a1.8,1.8,0,0,1-.71.71L8.87,50l-0.05,0a1.5,1.5,0,0,1-.85.25A2.44,2.44,0,0,1,6.05,49.2L1.23,40.93a2,2,0,0,1,0-1.75l0,0,0-.05A398.65,398.65,0,0,1,22.71,1.92l0,0,0-.05A1.67,1.67,0,0,1,24.42,1h8.33m0-1H24.42a2.66,2.66,0,0,0-2.55,1.39A398.55,398.55,0,0,0,.35,38.63a2.94,2.94,0,0,0,0,2.78l4.86,8.33A3.45,3.45,0,0,0,8,51.31a2.5,2.5,0,0,0,1.4-.42,2.79,2.79,0,0,0,1.16-1.16C16.08,38.86,22.1,28.44,28.58,18c6.48,10.18,12.5,20.83,18.05,31.71a2.79,2.79,0,0,0,1.16,1.16,3.77,3.77,0,0,0,1.48.32A3.17,3.17,0,0,0,52,49.74l4.86-8.33a3,3,0,0,0,0-2.78A370.89,370.89,0,0,0,35.29,1.37,2.66,2.66,0,0,0,32.75,0h0Z"/>
</svg>