<svg id="Слой_1" data-name="Слой 1" xmlns="http://www.w3.org/2000/svg" viewBox="0 0 180 180"><defs><style>.cls-1{fill:#222223;}.cls-2{fill:#e9786a;}</style></defs><title>apple-touch-icon</title><rect class="cls-1" x="1" y="1" width="180" height="180" rx="36" ry="36"/><path class="cls-2" d="M100.84,29.25a3.49,3.49,0,0,1,3,1.77l0,0.06,0,0.06a924.69,924.69,0,0,1,53.53,92.69v0a4.12,4.12,0,0,1,0,3.89l-12,20.62a4.61,4.61,0,0,1-3.88,2.11,6.07,6.07,0,0,1-2.32-.49,3.67,3.67,0,0,1-1.38-1.41c-14.29-28-29.49-54.64-45.2-79.32L91.64,67.6l-1.7-2.65-1.67,2.67-1.05,1.68C69.87,97.15,55.1,123.08,42.1,148.54a3.7,3.7,0,0,1-1.52,1.52l-0.1.05-0.09.07a3.18,3.18,0,0,1-1.67.56,5.5,5.5,0,0,1-4.19-2.44l-12.09-20.6a4.15,4.15,0,0,1,0-3.74A1000.08,1000.08,0,0,1,76,31.26l0-.07,0-.07a3.53,3.53,0,0,1,3.11-1.86h21.67m0-2-0.46,0H79.62l-0.44,0a5.53,5.53,0,0,0-4.87,2.91,998.14,998.14,0,0,0-53.63,92.89,6.13,6.13,0,0,0,0,5.61l12.14,20.69a7.48,7.48,0,0,0,5.86,3.39,5.19,5.19,0,0,0,2.84-.92,5.71,5.71,0,0,0,2.34-2.34c12.89-25.23,27.6-51.11,45-79.13l1-1.67L91,70.35c15.61,24.53,30.79,51.16,45.1,79.15a5.71,5.71,0,0,0,2.27,2.29,8.1,8.1,0,0,0,3.19.7h0a6.63,6.63,0,0,0,5.59-3.07l12.07-20.69a6.13,6.13,0,0,0,0-5.81A923.16,923.16,0,0,0,105.62,30a5.48,5.48,0,0,0-4.77-2.79h0Z"/></svg>