<svg id="Слой_1" data-name="Слой 1" xmlns="http://www.w3.org/2000/svg" viewBox="0 0 192 192"><defs><style>.cls-1{fill:#222223;}.cls-2{fill:#e9786a;}</style></defs><title>icon-192</title><rect class="cls-1" width="192" height="192"/><path class="cls-2" d="M48.47,156.78a9.8,9.8,0,0,1-7.66-4.45l0-.05L29.51,133.06l0-.07a8.55,8.55,0,0,1,0-7.79,928,928,0,0,1,49.6-85.93,8,8,0,0,1,7-4.08l0.51,0h16.62v0H106a8,8,0,0,1,6.85,4,858.5,858.5,0,0,1,49.64,85.93,8.51,8.51,0,0,1,0,8l0,0.09-11.17,19.15,0,0a9,9,0,0,1-7.59,4.16h-0.06a10.28,10.28,0,0,1-4.08-.89l-0.11-.05-0.11-.06a8.13,8.13,0,0,1-3.23-3.27l0-.05C123.4,127.46,109.93,103.75,96,81.68,80.68,106.4,67.57,129.5,56,152.2l0,0a8.12,8.12,0,0,1-3.19,3.26,7.64,7.64,0,0,1-4.06,1.28H48.47Zm-1.82-8.13a2.92,2.92,0,0,0,2,1.23,0.76,0.76,0,0,0,.3-0.12l0.19-.13,0.19-.1a1.26,1.26,0,0,0,.52-0.5c12.07-23.61,25.72-47.59,41.74-73.31L96,68.8l3.42,5.34,1,1.54C114.93,98.59,129,123.26,142.14,149a1.24,1.24,0,0,0,.36.4,3.41,3.41,0,0,0,1.17.22,2.06,2.06,0,0,0,1.71-.92l11-18.95a1.62,1.62,0,0,0,0-1.51l0-.07a854.76,854.76,0,0,0-49.3-85.35L107,42.73l-0.07-.12a1,1,0,0,0-.91-0.53H86a1.08,1.08,0,0,0-1,.57L85,42.79l-0.09.14a924.82,924.82,0,0,0-49.3,85.39,1.67,1.67,0,0,0,0,1.45Z" transform="translate(-1 -1)"/></svg>