<?xml version="1.0" encoding="utf-8"?>
<!-- Generator: Adobe Illustrator 19.2.1, SVG Export Plug-In . SVG Version: 6.00 Build 0)  -->
<svg version="1.1" id="Слой_1" xmlns="http://www.w3.org/2000/svg" xmlns:xlink="http://www.w3.org/1999/xlink" x="0px" y="0px"
	 viewBox="0 0 512 512" style="enable-background:new 0 0 512 512;" xml:space="preserve">
<style type="text/css">
	.st0{fill:#222223;}
	.st1{fill:#E9786A;}
</style>
<title>icon</title>
<rect x="1" y="1" class="st0" width="512" height="512"/>
<path class="st1" d="M129.2,418.1c-8.3-0.5-15.9-4.9-20.4-11.9l-0.1-0.1l-30.1-51.3l-0.1-0.2c-3.3-6.5-3.3-14.3,0-20.8
	c39.8-78.4,84.3-155.5,132.3-229.1c3.8-6.7,10.8-10.9,18.6-10.9c0.5,0,0.9,0,1.4,0H275v-0.1l7.7,0c7.5,0,14.5,4,18.3,10.5
	c48.3,73.5,92.9,150.6,132.4,229.1c3.6,6.7,3.6,14.7-0.1,21.5l-0.1,0.2l-29.8,51.1l-0.1,0.1c-4.4,6.9-12,11.1-20.2,11.1l-0.2,0
	c-3.8,0-7.4-0.8-10.9-2.4l-0.3-0.1l-0.3-0.2c-3.7-2-6.6-5-8.6-8.7l-0.1-0.1c-33.7-66-69.7-129.3-106.8-188.1
	c-40.9,65.9-75.8,127.5-106.7,188l-0.1,0.1c-2,3.7-4.9,6.7-8.5,8.7c-3.2,2.1-6.9,3.3-10.8,3.4l-0.3,0L129.2,418.1z M124.3,396.4
	c1.3,1.8,3.2,3,5.4,3.3c0.3-0.1,0.6-0.2,0.8-0.3l0.5-0.3l0.5-0.3c0.6-0.3,1.1-0.8,1.4-1.3c32.2-62.9,68.6-126.9,111.3-195.5
	l11.6-18.5l9.1,14.2l2.6,4.1c38.9,61.1,76.3,126.9,111.4,195.6c0.2,0.4,0.6,0.8,1,1.1c1,0.4,2,0.6,3.1,0.6c1.8,0,3.5-0.9,4.6-2.4
	l29.5-50.5c0.6-1.3,0.6-2.8,0-4l-0.1-0.2c-39.2-78-83.5-154.6-131.5-227.6l-0.2-0.3l-0.2-0.3c-0.5-0.9-1.4-1.4-2.4-1.4h-53.3
	c-1.1,0-2,0.6-2.5,1.5l-0.2,0.4l-0.2,0.4c-47.7,73.2-91.9,149.8-131.5,227.7c-0.6,1.2-0.7,2.7-0.1,3.9L124.3,396.4z"/>
</svg>
