<svg id="Слой_1" data-name="Слой 1" xmlns="http://www.w3.org/2000/svg" viewBox="0 0 512 512"><defs><style>.cls-1{fill:#222223;}.cls-2{fill:#e9786a;}</style></defs><title>icon</title><rect class="cls-1" width="512" height="512"/><path class="cls-2" d="M129.21,418.12a26.12,26.12,0,0,1-20.42-11.86l-0.09-.14L78.64,354.85l-0.1-.19a22.8,22.8,0,0,1,0-20.78A2474.65,2474.65,0,0,1,210.8,104.74a21.26,21.26,0,0,1,18.57-10.88c0.45,0,.91,0,1.37,0H275V93.85l7.67,0A21.19,21.19,0,0,1,301,104.37,2289.32,2289.32,0,0,1,433.37,333.51a22.7,22.7,0,0,1-.06,21.45l-0.13.23L403.4,406.26l-0.08.13a23.88,23.88,0,0,1-20.23,11.09h-0.15a27.42,27.42,0,0,1-10.88-2.37l-0.3-.13-0.29-.16a21.67,21.67,0,0,1-8.63-8.72l-0.07-.14C329,339.93,293.1,276.68,256,217.85c-40.86,65.93-75.81,127.51-106.73,188l-0.07.13a21.64,21.64,0,0,1-8.51,8.69,20.37,20.37,0,0,1-10.82,3.42h-0.31Zm-4.87-21.68a7.79,7.79,0,0,0,5.42,3.28,2,2,0,0,0,.79-0.33l0.49-.34,0.5-.27a3.37,3.37,0,0,0,1.39-1.34c32.18-62.95,68.59-126.9,111.3-195.49l11.58-18.47,9.12,14.24,2.64,4.1c38.86,61.12,76.34,126.9,111.42,195.57a3.3,3.3,0,0,0,1,1.07,9.08,9.08,0,0,0,3.13.59,5.5,5.5,0,0,0,4.55-2.45l29.47-50.52a4.33,4.33,0,0,0,0-4l-0.1-.18A2279.37,2279.37,0,0,0,285.5,114.28l-0.19-.29-0.19-.32a2.8,2.8,0,0,0-2.43-1.42H229.35a2.88,2.88,0,0,0-2.54,1.52l-0.19.36-0.24.38A2466.19,2466.19,0,0,0,94.91,342.23a4.45,4.45,0,0,0-.11,3.87Z" transform="translate(-1 -1)"/></svg>